<svg xmlns="http://www.w3.org/2000/svg" viewBox="0 0 1200 760" role="img" aria-labelledby="slide2Title">
  <title id="slide2Title">Member achievements placeholder</title>
  <defs>
    <linearGradient id="bg2" x1="0" x2="1" y1="0" y2="1">
      <stop offset="0%" stop-color="#f8efe5"/>
      <stop offset="100%" stop-color="#e8ded2"/>
    </linearGradient>
  </defs>
  <rect width="1200" height="760" fill="url(#bg2)"/>
  <circle cx="1040" cy="620" r="160" fill="#b95c35" opacity="0.16"/>
  <circle cx="160" cy="118" r="110" fill="#102b31" opacity="0.09"/>
  <rect x="90" y="98" width="1020" height="564" rx="42" fill="#fffaf2" opacity="0.92"/>
  <rect x="138" y="156" width="410" height="448" rx="30" fill="#f5e0cf"/>
  <rect x="180" y="198" width="326" height="250" rx="26" fill="#102b31"/>
  <circle cx="343" cy="505" r="52" fill="#b95c35"/>
  <rect x="604" y="164" width="312" height="22" rx="11" fill="#102b31"/>
  <rect x="604" y="212" width="430" height="18" rx="9" fill="#d0bfaf"/>
  <rect x="604" y="250" width="390" height="18" rx="9" fill="#d0bfaf"/>
  <rect x="604" y="330" width="452" height="110" rx="28" fill="#fff1e2"/>
  <rect x="604" y="468" width="210" height="96" rx="26" fill="#f0ddc9"/>
  <rect x="846" y="468" width="210" height="96" rx="26" fill="#f0ddc9"/>
  <text x="140" y="82" font-family="Arial, sans-serif" font-size="34" font-weight="700" letter-spacing="8" fill="#964623">HOME SLIDE 02</text>
</svg>
